<?xml version="1.0" encoding="UTF-8"?>
<svg version="1.1" xmlns="http://www.w3.org/2000/svg" width="512" height="512">
<path d="M0 0 C0.91297852 0.16628906 1.82595703 0.33257812 2.76660156 0.50390625 C44.3986228 8.16363077 83.16052206 26.40624883 116 53 C116.54446777 53.44005371 117.08893555 53.88010742 117.64990234 54.33349609 C131.72173929 65.81174863 144.93680647 78.57719064 156 93 C156.75925781 93.93070312 157.51851563 94.86140625 158.30078125 95.8203125 C184.1596216 128.07168914 200.62794761 167.52514646 208 208 C208.16371094 208.83563477 208.32742188 209.67126953 208.49609375 210.53222656 C213.78656862 238.24163521 213.41678597 270.35093304 208 298 C207.83371094 298.91297852 207.66742188 299.82595703 207.49609375 300.76660156 C199.83636923 342.3986228 181.59375117 381.16052206 155 414 C154.55994629 414.54446777 154.11989258 415.08893555 153.66650391 415.64990234 C142.18825137 429.72173929 129.42280936 442.93680647 115 454 C114.06929688 454.75925781 113.13859375 455.51851563 112.1796875 456.30078125 C79.92831086 482.1596216 40.47485354 498.62794761 0 506 C-0.83563477 506.16371094 -1.67126953 506.32742188 -2.53222656 506.49609375 C-30.24163521 511.78656862 -62.35093304 511.41678597 -90 506 C-90.91297852 505.83371094 -91.82595703 505.66742188 -92.76660156 505.49609375 C-134.3986228 497.83636923 -173.16052206 479.59375117 -206 453 C-206.54446777 452.55994629 -207.08893555 452.11989258 -207.64990234 451.66650391 C-221.72173929 440.18825137 -234.93680647 427.42280936 -246 413 C-246.75925781 412.06929688 -247.51851562 411.13859375 -248.30078125 410.1796875 C-274.1596216 377.92831086 -290.62794761 338.47485354 -298 298 C-298.16371094 297.16436523 -298.32742188 296.32873047 -298.49609375 295.46777344 C-303.78656862 267.75836479 -303.41678597 235.64906696 -298 208 C-297.83371094 207.08702148 -297.66742188 206.17404297 -297.49609375 205.23339844 C-289.83636923 163.6013772 -271.59375117 124.83947794 -245 92 C-244.55994629 91.45553223 -244.11989258 90.91106445 -243.66650391 90.35009766 C-232.18825137 76.27826071 -219.42280936 63.06319353 -205 52 C-204.06929688 51.24074219 -203.13859375 50.48148438 -202.1796875 49.69921875 C-169.92831086 23.8403784 -130.47485354 7.37205239 -90 0 C-89.16436523 -0.16371094 -88.32873047 -0.32742188 -87.46777344 -0.49609375 C-59.75836479 -5.78656862 -27.64906696 -5.41678597 0 0 Z M-193 66 C-193.87615967 66.70261963 -193.87615967 66.70261963 -194.77001953 67.41943359 C-208.76688373 78.75961335 -222.18317752 91.57123329 -233 106 C-233.47324707 106.61858887 -233.94649414 107.23717773 -234.43408203 107.87451172 C-266.30699886 149.68107168 -283.54661968 200.06137528 -283.3125 252.625 C-283.31034485 253.50084747 -283.3081897 254.37669495 -283.30596924 255.27908325 C-283.09721687 308.3039948 -265.33651192 359.57990706 -232 401 C-231.29738037 401.87615967 -231.29738037 401.87615967 -230.58056641 402.77001953 C-219.24038665 416.76688373 -206.42876671 430.18317752 -192 441 C-191.38141113 441.47324707 -190.76282227 441.94649414 -190.12548828 442.43408203 C-148.31892832 474.30699886 -97.93862472 491.54661968 -45.375 491.3125 C-44.49915253 491.31034485 -43.62330505 491.3081897 -42.72091675 491.30596924 C10.3039948 491.09721687 61.57990706 473.33651192 103 440 C103.58410645 439.53158691 104.16821289 439.06317383 104.77001953 438.58056641 C118.76688373 427.24038665 132.18317752 414.42876671 143 400 C143.47324707 399.38141113 143.94649414 398.76282227 144.43408203 398.12548828 C176.30699886 356.31892832 193.54661968 305.93862472 193.3125 253.375 C193.31034485 252.49915253 193.3081897 251.62330505 193.30596924 250.72091675 C193.09721687 197.6960052 175.33651192 146.42009294 142 105 C141.53158691 104.41589355 141.06317383 103.83178711 140.58056641 103.22998047 C129.24038665 89.23311627 116.42876671 75.81682248 102 65 C101.38141113 64.52675293 100.76282227 64.05350586 100.12548828 63.56591797 C58.31892832 31.69300114 7.93862472 14.45338032 -44.625 14.6875 C-45.50084747 14.68965515 -46.37669495 14.6918103 -47.27908325 14.69403076 C-100.3039948 14.90278313 -151.57990706 32.66348808 -193 66 Z " fill="#9c0000" transform="translate(301,3)"/>
<path d="M0 0 C5.17753977 1.27893743 9.46658198 5.03676039 13.73095703 8.09814453 C14.84282002 8.87830361 15.95587689 9.65676373 17.07006836 10.43359375 C19.34597324 12.02276773 21.61620233 13.61956545 23.88232422 15.22265625 C28.66386545 18.59830352 33.51170115 21.87596419 38.35595703 25.16064453 C40.16233561 26.39184484 41.96832583 27.62361512 43.77392578 28.85595703 C49.23820004 32.583355 54.70327298 36.30958069 60.16845703 40.03564453 C62.00179381 41.28563948 63.83512714 42.53563948 65.66845703 43.78564453 C66.57595703 44.40439453 67.48345703 45.02314453 68.41845703 45.66064453 C93.16845703 62.53564453 117.91845703 79.41064453 142.66845703 96.28564453 C143.57684326 96.9049585 144.48522949 97.52427246 145.42114258 98.16235352 C147.24567577 99.40643448 149.07005847 100.65073617 150.89428711 101.89526367 C155.61102269 105.11269544 160.33068892 108.32569728 165.05517578 111.53173828 C192.27702102 130.01497833 192.27702102 130.01497833 195.16845703 134.53564453 C195.83850749 138.38843469 195.53277836 139.99383332 193.34033203 143.25439453 C189.32226388 147.86293658 184.01782834 150.8837235 178.91845703 154.16064453 C176.75056229 155.5780388 174.58390202 156.99732292 172.41845703 158.41845703 C171.35498047 159.11487305 170.29150391 159.81128906 169.19580078 160.52880859 C165.04309525 163.28165049 160.97191808 166.1393744 156.91845703 169.03564453 C151.54373202 172.86594442 146.12598874 176.60162973 140.61767578 180.23876953 C135.97901128 183.31328259 131.38961017 186.46061977 126.79345703 189.59814453 C125.84768799 190.24372314 124.90191895 190.88930176 123.92749023 191.55444336 C121.97808295 192.8854225 120.02878402 194.21656035 118.07958984 195.54785156 C113.44426209 198.71296717 108.80627295 201.87417649 104.16845703 205.03564453 C102.33510991 206.28562431 100.5017766 207.53562435 98.66845703 208.78564453 C71.16845703 227.53564453 71.16845703 227.53564453 43.66845703 246.28564453 C42.75950684 246.90544189 41.85055664 247.52523926 40.9140625 248.16381836 C39.0955983 249.40356271 37.27691626 250.64298761 35.45800781 251.88208008 C30.64526669 255.16129469 25.83733365 258.44729488 21.03564453 261.74267578 C19.53130859 262.77328125 19.53130859 262.77328125 17.99658203 263.82470703 C16.07070763 265.14428764 14.14616263 266.46581117 12.22314453 267.78955078 C11.35689453 268.38251953 10.49064453 268.97548828 9.59814453 269.58642578 C8.83743652 270.10889893 8.07672852 270.63137207 7.29296875 271.16967773 C3.09361942 273.86967308 0.26478138 275.15968425 -4.83154297 274.53564453 C-8.16915342 272.38474002 -9.5662523 271.33151654 -10.83154297 267.53564453 C-10.92377767 266.0659864 -10.96063536 264.59249898 -10.96297073 263.11995125 C-10.96873245 261.7570925 -10.96873245 261.7570925 -10.97461057 260.36670125 C-10.97374408 259.36720381 -10.9728776 258.36770638 -10.97198486 257.33792114 C-10.97495599 256.27716208 -10.97792711 255.21640302 -10.98098826 254.12349975 C-10.98969434 250.5514008 -10.99118512 246.97933529 -10.99267578 243.40722656 C-10.99730255 240.85335213 -11.00232702 238.29947839 -11.00772095 235.74560547 C-11.02085932 228.79525557 -11.02732905 221.84491673 -11.03173161 214.89455652 C-11.03449349 210.55583098 -11.03873072 206.21710767 -11.04323578 201.87838364 C-11.05542806 189.86857048 -11.06572782 177.85875911 -11.06911087 165.8489399 C-11.06933044 165.08022414 -11.06955 164.31150839 -11.06977622 163.51949822 C-11.0699945 162.74893334 -11.07021278 161.97836846 -11.07043767 161.18445313 C-11.07088114 159.62296875 -11.0713277 158.06148438 -11.07177734 156.5 C-11.07199877 155.72544822 -11.0722202 154.95089643 -11.07244834 154.15287338 C-11.07639755 141.59842075 -11.09385547 129.04402612 -11.11713687 116.4895959 C-11.1408399 103.60394306 -11.15331222 90.71831934 -11.15447879 77.83264434 C-11.15539608 70.59624375 -11.16116206 63.35991876 -11.1792984 56.12353897 C-11.19629174 49.31920378 -11.1979599 42.51503673 -11.18915939 35.7106781 C-11.18838626 33.21008292 -11.19276779 30.70948017 -11.20261765 28.20890427 C-11.21525474 24.80154133 -11.20950498 21.39469395 -11.19903564 17.98733521 C-11.20709205 16.99229921 -11.21514845 15.99726322 -11.22344899 14.97207463 C-11.18790156 10.04285149 -11.15512103 6.47268536 -7.83154297 2.53564453 C-4.97312543 0.63003284 -3.40924776 -0.11325516 0 0 Z M7.16845703 26.53564453 C7.16845703 99.79564453 7.16845703 173.05564453 7.16845703 248.53564453 C13.85349086 244.28153209 20.4688026 240.03249187 26.98095703 235.53564453 C28.63706332 234.39741457 30.29331943 233.25940258 31.94970703 232.12158203 C33.22974609 231.24131348 33.22974609 231.24131348 34.53564453 230.34326172 C39.00989558 227.27136309 43.49568227 224.21641471 47.98095703 221.16064453 C49.84164507 219.89243143 51.70232208 218.62420217 53.56298828 217.35595703 C54.48934082 216.72463867 55.41569336 216.09332031 56.37011719 215.44287109 C60.97001054 212.30778412 65.56920193 209.17166772 70.16845703 206.03564453 C72.00178692 204.78563948 73.83512026 203.53563948 75.66845703 202.28564453 C76.57595703 201.66689453 77.48345703 201.04814453 78.41845703 200.41064453 C108.66845703 179.78564453 138.91845703 159.16064453 169.16845703 138.53564453 C167.99974252 135.02950101 167.2637205 134.65751076 164.25048828 132.70751953 C163.41976807 132.16297119 162.58904785 131.61842285 161.7331543 131.05737305 C160.8249292 130.47270264 159.9167041 129.88803223 158.98095703 129.28564453 C157.04792442 128.01984824 155.11565613 126.75288411 153.18408203 125.48486328 C152.18570313 124.83179199 151.18732422 124.1787207 150.15869141 123.50585938 C145.47976384 120.42299316 140.85438335 117.26340371 136.23095703 114.09814453 C135.32128174 113.47649414 134.41160645 112.85484375 133.47436523 112.21435547 C131.62750971 110.95219921 129.78091124 109.68966673 127.93457031 108.42675781 C123.34902635 105.29175132 118.75850324 102.16405364 114.16845703 99.03564453 C112.33509959 97.78567989 110.50176626 96.53567988 108.66845703 95.28564453 C107.76095703 94.66689453 106.85345703 94.04814453 105.91845703 93.41064453 C53.66845703 57.78564453 53.66845703 57.78564453 50.91503906 55.90820312 C49.09323685 54.66613886 47.27129813 53.4242748 45.44921875 52.18261719 C40.68828403 48.93788199 35.93021541 45.68904983 31.17626953 42.43408203 C30.19142578 41.76054687 29.20658203 41.08701172 28.19189453 40.39306641 C26.31861103 39.11181118 24.44615647 37.82934278 22.57470703 36.54541016 C21.72134766 35.96210938 20.86798828 35.37880859 19.98876953 34.77783203 C19.24900879 34.27106934 18.50924805 33.76430664 17.74707031 33.2421875 C14.26536872 30.93797484 10.70895323 28.74845465 7.16845703 26.53564453 Z " fill="#9c0000" transform="translate(197.83154296875,118.46435546875)"/>
</svg>
