<?xml version="1.0" encoding="UTF-8"?>
<svg version="1.1" xmlns="http://www.w3.org/2000/svg" width="512" height="512">
<path d="M0 0 C168.96 0 337.92 0 512 0 C512 119.79 512 239.58 512 363 C343.04 363 174.08 363 0 363 C0 243.21 0 123.42 0 0 Z M32 33 C32 131.01 32 229.02 32 330 C179.84 330 327.68 330 480 330 C480 231.99 480 133.98 480 33 C332.16 33 184.32 33 32 33 Z " fill="#9c0000" transform="translate(0,47)"/>
<path d="M0 0 C137.28 0 274.56 0 416 0 C416 10.89 416 21.78 416 33 C278.72 33 141.44 33 0 33 C0 22.11 0 11.22 0 0 Z " fill="#9c0000" transform="translate(47,432)"/>
<path d="M0 0 C4.28797894 0.85759579 6.24494957 1.49609404 9.82421875 3.6328125 C10.75669434 4.18380615 11.68916992 4.7347998 12.64990234 5.30249023 C13.65230957 5.90391846 14.6547168 6.50534668 15.6875 7.125 C17.86025981 8.41086159 20.03345157 9.69599352 22.20703125 10.98046875 C23.32932129 11.6461084 24.45161133 12.31174805 25.60791016 12.99755859 C31.00694148 16.18475126 36.4405284 19.31124675 41.875 22.4375 C44.05994368 23.69653156 46.24483925 24.95564661 48.4296875 26.21484375 C49.51475586 26.83987793 50.59982422 27.46491211 51.71777344 28.10888672 C57.14659942 31.23680148 62.57319281 34.36858448 68 37.5 C70.16665583 38.75001879 72.3333225 40.00001878 74.5 41.25 C78.83333333 43.75 83.16666667 46.25 87.5 48.75 C88.57354736 49.36931396 89.64709473 49.98862793 90.75317383 50.62670898 C92.90940213 51.87076792 95.06549049 53.11506942 97.22143555 54.35961914 C102.21447507 57.24154067 107.2087388 60.1212475 112.20825195 62.9919281 C135.82166049 76.55097112 135.82166049 76.55097112 146 83 C142.59166354 85.8455204 139.16533016 88.18211602 135.30078125 90.36328125 C134.18751465 90.99500244 133.07424805 91.62672363 131.92724609 92.27758789 C131.33901062 92.60872589 130.75077515 92.93986389 130.14471436 93.28103638 C127.63313685 94.69495436 125.12707484 96.1185265 122.62054443 97.54136658 C121.32383464 98.27727543 120.02683499 99.01267376 118.72955322 99.74757385 C112.42563732 103.31957855 106.14790189 106.93633135 99.875 110.5625 C98.81192627 111.17649658 97.74885254 111.79049316 96.65356445 112.4230957 C94.5081844 113.66223343 92.36292029 114.9015719 90.21777344 116.14111328 C84.81329355 119.26324605 79.40652588 122.38141204 74 125.5 C71.8333225 126.74998122 69.66665583 127.99998121 67.5 129.25 C61 133 61 133 54.5 136.75 C52.88895386 137.67945435 52.88895386 137.67945435 51.24536133 138.62768555 C49.09416776 139.86875254 46.94296345 141.10980093 44.79174805 142.35083008 C39.74037001 145.26498344 34.6890969 148.17931818 29.63821411 151.09432983 C27.84933082 152.12673478 26.06041283 153.15907956 24.27148438 154.19140625 C22.02662364 155.48685948 19.7818281 156.7824257 17.53710938 158.078125 C15.55498363 159.2219008 13.57213093 160.36441823 11.58837891 161.50537109 C9.98204251 162.43293112 8.37939541 163.36695074 6.78271484 164.31103516 C2.20923675 167 2.20923675 167 0 167 C0 111.89 0 56.78 0 0 Z " fill="#9c0000" transform="translate(197,145)"/>
</svg>
