<?xml version="1.0" encoding="UTF-8"?>
<svg version="1.1" xmlns="http://www.w3.org/2000/svg" width="512" height="512">
<path d="M0 0 C0.55204102 0.43151367 1.10408203 0.86302734 1.67285156 1.30761719 C24.60697119 19.46537471 40.80022041 44.67757395 44.70263672 74.01660156 C47.88013413 105.89592699 41.59899645 135.62880989 21.25683594 160.96972656 C13.45700055 170.42391181 4.1422783 180.42886085 -7 186 C-5.57298525 189.25967835 -3.80551266 191.35749802 -1.3125 193.875 C7.34399214 203.44435858 12.15303459 215.9391626 13.53173828 228.67456055 C13.61996857 229.48467087 13.70819885 230.29478119 13.79910278 231.12944031 C13.86539886 231.74672501 13.93169495 232.3640097 14 233 C41.09045247 215.23192688 68.06663438 197.30582361 94.88807678 179.13394165 C96.2932666 178.18205314 97.6992521 177.23133765 99.10621643 176.28207397 C100.3310487 175.45287385 101.55214991 174.61812382 102.7686615 173.77676392 C107.68762571 170.40452119 111.15978039 170.12661368 117 171 C120.23027725 171.98381408 123.06711996 173.3365755 126 175 C126.6290625 175.350625 127.258125 175.70125 127.90625 176.0625 C134.78149933 180.40476274 138.86073981 187.27613853 141 195 C141.18740892 197.88581982 141.2787939 200.67351355 141.26742554 203.55744934 C141.27195665 204.40560469 141.27648776 205.25376004 141.28115618 206.12761706 C141.29379091 208.96249385 141.29218041 211.79717829 141.29052734 214.63208008 C141.29651317 216.66759996 141.30331884 218.70311757 141.31088257 220.7386322 C141.32854426 226.26351054 141.33323803 231.78832692 141.33451414 237.31323075 C141.3359362 240.76638511 141.34020686 244.21952373 141.34550858 247.67267418 C141.36400943 259.7236061 141.37217912 271.7744938 141.37060547 283.82543945 C141.36940407 295.05215372 141.39050611 306.27867573 141.4220928 317.50534135 C141.44825897 327.14969371 141.45897262 336.7939833 141.45769465 346.43837088 C141.45718512 352.19600572 141.46286364 357.95346968 141.48405075 363.71106911 C141.50343872 369.12758367 141.50355358 374.54376446 141.48901749 379.96029091 C141.486929 381.94480376 141.49163263 383.92933752 141.5037384 385.91381454 C141.51923136 388.63013255 141.50985622 391.34530544 141.49447632 394.06159973 C141.50476344 394.84060869 141.51505057 395.61961764 141.52564943 396.42223293 C141.42197898 404.74921216 137.7393927 412.94175215 132 419 C125.27006746 424.40887171 118.41031666 427.81641545 109.63671875 427.6328125 C104.22048265 426.33291584 100.81600654 421.82184142 97 418 C95.24886591 416.51807011 93.4775725 415.05965231 91.6875 413.625 C87.5802647 410.29981938 83.52516173 406.92337367 79.5 403.5 C75.53108112 400.12703063 71.53982569 396.78823022 67.5 393.5 C62.8954642 389.75212202 58.35980809 385.93016556 53.8359375 382.0859375 C50.4194046 379.18755177 46.97495162 376.328449 43.5 373.5 C38.90514197 369.75999927 34.37872506 365.94642212 29.86450195 362.11010742 C24.6321273 357.6711119 19.32776708 353.32413961 14 349 C13.98541748 349.69971924 13.97083496 350.39943848 13.95581055 351.12036133 C13.88043067 354.35157443 13.78407319 357.58185352 13.6875 360.8125 C13.66494141 361.91271484 13.64238281 363.01292969 13.61914062 364.14648438 C13.04960028 381.69868223 6.41738332 398.0384833 -6.14453125 410.4453125 C-19.26345111 422.18234888 -34.23256048 427.32319318 -51.56222534 427.26069641 C-52.6973815 427.26452196 -53.83253765 427.26834751 -55.00209248 427.27228898 C-58.79034239 427.28257417 -62.57843946 427.2786353 -66.36669922 427.2746582 C-69.0890649 427.2779151 -71.81142218 427.28412678 -74.53378296 427.29014587 C-81.15169916 427.3028682 -87.76957474 427.30468965 -94.38750111 427.30234561 C-99.76906177 427.30055954 -105.15061014 427.30231828 -110.53216934 427.30657005 C-111.29932441 427.30716524 -112.06647947 427.30776043 -112.85688166 427.30837366 C-114.41557081 427.30958546 -115.97425996 427.31079959 -117.5329491 427.31201603 C-132.13674702 427.32288205 -146.74052182 427.32073352 -161.34432103 427.31463119 C-174.68972392 427.30946277 -188.0350538 427.32071716 -201.38044225 427.33972941 C-215.10026775 427.35912449 -228.82005874 427.36736088 -242.53989804 427.36360615 C-250.23581987 427.36169666 -257.93167957 427.36415713 -265.62759018 427.37832069 C-272.17919496 427.39025677 -278.73069936 427.39161449 -285.28230558 427.37953053 C-288.62147745 427.37365736 -291.96031615 427.37413806 -295.29949951 427.38453293 C-298.92777094 427.39501135 -302.55555326 427.38689022 -306.18380737 427.3742218 C-307.22731067 427.38159609 -308.27081396 427.38897037 -309.34593856 427.39656812 C-326.29630291 427.27252104 -342.57264501 419.87654459 -354.4453125 407.85546875 C-367.13686774 393.66964783 -371.30588147 378.02052712 -371.29052734 359.4309082 C-371.29652191 357.97447875 -371.30332957 356.51805245 -371.31088257 355.06163025 C-371.32845775 351.12744715 -371.33323441 347.1933512 -371.33451414 343.25913262 C-371.33594139 340.79406039 -371.34022185 338.3290099 -371.34550858 335.8639431 C-371.36398247 327.24367252 -371.37218271 318.62346355 -371.37060547 310.00317383 C-371.36940555 302.00121122 -371.39048523 293.99951896 -371.4220928 285.9976247 C-371.44835387 279.10045345 -371.45896863 272.20336996 -371.45769465 265.30614918 C-371.4571878 261.19884315 -371.46271602 257.09177755 -371.48405075 252.98452187 C-371.5035993 249.11589313 -371.50344599 245.24773004 -371.48901749 241.37908363 C-371.48694852 239.97073679 -371.49151413 238.56235949 -371.5037384 237.15406418 C-371.65915517 217.98588604 -365.38674545 201.80248289 -352 188 C-342.43037975 180 -342.43037975 180 -339 180 C-340.96996853 177.44633709 -342.93530394 175.06289895 -345.25 172.8125 C-354.74901513 163.09759816 -361.72353086 152.20970507 -366.3125 139.4375 C-366.55500488 138.76581787 -366.79750977 138.09413574 -367.04736328 137.40209961 C-370.42272736 127.47996046 -371.36655487 117.68799491 -371.3125 107.25 C-371.30686035 106.10619873 -371.3012207 104.96239746 -371.29541016 103.78393555 C-370.9219998 77.7062135 -360.40501063 55.18974735 -342 37 C-341.28328125 36.27296875 -340.5665625 35.5459375 -339.828125 34.796875 C-320.20791796 16.06179009 -294.5519099 10.16774266 -268.19921875 10.71875 C-243.64837509 11.60546219 -222.04943974 22.74879174 -205 40 C-204.27296875 40.71671875 -203.5459375 41.4334375 -202.796875 42.171875 C-191.0810838 54.44116815 -183.85562831 70.66289584 -180 87 C-179.93530518 86.41734375 -179.87061035 85.8346875 -179.80395508 85.234375 C-176.03162515 52.2839635 -163.77704688 23.45166501 -137.1875 2.25 C-98.21678871 -27.77705024 -39.63638544 -31.07229108 0 0 Z M-124.33984375 35.2734375 C-139.80889281 51.61509959 -147.07348222 71.75063408 -147 94 C-145.78478044 116.12149689 -136.35435627 135.4397477 -120.3125 150.625 C-103.20199968 165.43317 -82.55222434 172.01914559 -60.16015625 170.7890625 C-38.34775901 168.36291968 -19.53026871 158.35763381 -5.1640625 141.7578125 C8.8203967 123.93646197 14.87020958 102.8708465 12.375 80.4375 C8.95701202 58.9336021 -1.84389133 40.46244221 -19 27 C-52.31322908 3.51968332 -94.96531056 6.7325722 -124.33984375 35.2734375 Z M-323 65 C-336.02195601 80.80495777 -339.59155051 97.91148439 -338 118 C-335.28689174 135.15529882 -324.59778817 149.67872194 -310.8125 159.8125 C-296.15732964 169.55387795 -278.87817691 172.35298172 -261.58251953 169.61767578 C-243.94911663 165.70652216 -229.8504469 154.3408272 -219.98046875 139.4921875 C-211.55670071 125.40312472 -209.33138427 107.3376564 -212.87109375 91.37890625 C-217.50802304 74.22669168 -229.04668234 60.02879956 -244.22363281 50.95458984 C-271.07823866 36.52337642 -302.52498455 43.26803692 -323 65 Z M-179 106 C-179.08636719 107.24652344 -179.17273438 108.49304688 -179.26171875 109.77734375 C-180.95596767 131.34012435 -186.63290586 149.49731115 -200.1796875 166.671875 C-202.00927782 168.85304197 -202.00927782 168.85304197 -203 171 C-184.52 171 -166.04 171 -147 171 C-148.73857065 167.52285869 -150.02759505 165.7319319 -152.625 163 C-166.93361914 147.08715954 -174.8011056 127.00326716 -178 106 C-178.33 106 -178.66 106 -179 106 Z M-331 214 C-338.7408232 224.35683548 -339.15015537 234.90792775 -339.14526367 247.38598633 C-339.14862228 248.61940262 -339.1519809 249.85281891 -339.15544128 251.12361145 C-339.16329 254.49154848 -339.16661748 257.85942384 -339.16725707 261.22736573 C-339.16797018 263.33626393 -339.17010944 265.44515575 -339.17275429 267.55405235 C-339.18199284 274.9247923 -339.18609106 282.29551422 -339.18530273 289.66625977 C-339.18470242 296.5150647 -339.19524903 303.36379075 -339.2110464 310.21257573 C-339.22416213 316.11091727 -339.22948494 322.00923315 -339.22884732 327.90758914 C-339.22859351 331.42228041 -339.23137976 334.93690152 -339.24202538 338.45157814 C-339.25358974 342.37635956 -339.24893492 346.30103445 -339.24291992 350.22583008 C-339.24853943 351.37577454 -339.25415894 352.52571899 -339.25994873 353.71051025 C-339.21019066 366.5298725 -337.23940544 377.55060807 -328 387 C-318.30511176 394.24607589 -308.28182839 395.15253352 -296.50675964 395.13371277 C-294.94028756 395.1371111 -294.94028756 395.1371111 -293.34216958 395.14057809 C-289.84943964 395.14689865 -286.35674869 395.14608997 -282.86401367 395.14526367 C-280.35707041 395.14825637 -277.85012762 395.15165915 -275.34318542 395.15544128 C-269.24403903 395.16335691 -263.14490688 395.16649544 -257.04575583 395.16705366 C-252.08605275 395.16752952 -247.12635285 395.16958776 -242.16665077 395.17275429 C-228.09225556 395.18155667 -214.01786795 395.1861743 -199.94346996 395.18542381 C-199.18538415 395.18538386 -198.42729834 395.1853439 -197.64624023 395.18530273 C-196.88722447 395.18526185 -196.1282087 395.18522097 -195.34619246 395.18517885 C-183.04758013 395.18477247 -170.74899842 395.1943411 -158.45039495 395.2084411 C-145.80980416 395.22281836 -133.1692283 395.22971055 -120.52862912 395.22884732 C-113.43690625 395.22851583 -106.34521548 395.23124217 -99.25349998 395.24202538 C-92.58290698 395.25210359 -85.91239294 395.25178124 -79.24179268 395.24450874 C-76.7965116 395.24346369 -74.35122628 395.24582107 -71.90595245 395.2518692 C-68.56195268 395.25960316 -65.21818615 395.25493485 -61.87419128 395.24723816 C-60.91201177 395.25238172 -59.94983226 395.25752529 -58.9584958 395.26282471 C-46.67121839 395.20054762 -36.00602515 392.80589125 -27 384 C-19.2591768 373.64316452 -18.84984463 363.09207225 -18.85473633 350.61401367 C-18.85137772 349.38059738 -18.8480191 348.14718109 -18.84455872 346.87638855 C-18.83671 343.50845152 -18.83338252 340.14057616 -18.83274293 336.77263427 C-18.83202982 334.66373607 -18.82989056 332.55484425 -18.82724571 330.44594765 C-18.81800716 323.0752077 -18.81390894 315.70448578 -18.81469727 308.33374023 C-18.81529758 301.4849353 -18.80475097 294.63620925 -18.7889536 287.78742427 C-18.77583787 281.88908273 -18.77051506 275.99076685 -18.77115268 270.09241086 C-18.77140649 266.57771959 -18.76862024 263.06309848 -18.75797462 259.54842186 C-18.74641026 255.62364044 -18.75106508 251.69896555 -18.75708008 247.77416992 C-18.75146057 246.62422546 -18.74584106 245.47428101 -18.74005127 244.28948975 C-18.78980934 231.4701275 -20.76059456 220.44939193 -30 211 C-39.69488824 203.75392411 -49.71817161 202.84746648 -61.49324036 202.86628723 C-62.53755508 202.86402167 -63.5818698 202.86175612 -64.65783042 202.85942191 C-68.15056036 202.85310135 -71.64325131 202.85391003 -75.13598633 202.85473633 C-77.64292959 202.85174363 -80.14987238 202.84834085 -82.65681458 202.84455872 C-88.75596097 202.83664309 -94.85509312 202.83350456 -100.95424417 202.83294634 C-105.91394725 202.83247048 -110.87364715 202.83041224 -115.83334923 202.82724571 C-129.90774444 202.81844333 -143.98213205 202.8138257 -158.05653004 202.81457619 C-158.81461585 202.81461614 -159.57270166 202.8146561 -160.35375977 202.81469727 C-161.11277553 202.81473815 -161.8717913 202.81477903 -162.65380754 202.81482115 C-174.95241987 202.81522753 -187.25100158 202.8056589 -199.54960505 202.7915589 C-212.19019584 202.77718164 -224.8307717 202.77028945 -237.47137088 202.77115268 C-244.56309375 202.77148417 -251.65478452 202.76875783 -258.74650002 202.75797462 C-265.41709302 202.74789641 -272.08760706 202.74821876 -278.75820732 202.75549126 C-281.2034884 202.75653631 -283.64877372 202.75417893 -286.09404755 202.7481308 C-289.43804732 202.74039684 -292.78181385 202.74506515 -296.12580872 202.75276184 C-297.08798823 202.74761828 -298.05016774 202.74247471 -299.0415042 202.73717529 C-311.32878161 202.79945238 -321.99397485 205.19410875 -331 214 Z M104.52978516 206.2019043 C103.78618744 206.68995041 103.04258972 207.17799652 102.27645874 207.68083191 C101.0451976 208.4943084 101.0451976 208.4943084 99.7890625 209.32421875 C98.92979156 209.88969925 98.07052063 210.45517975 97.18521118 211.03779602 C94.33004006 212.91836469 91.47741052 214.80274716 88.625 216.6875 C87.65236206 217.32905029 86.67972412 217.97060059 85.6776123 218.6315918 C68.62861267 229.87853202 51.67077133 241.25782513 34.76416016 252.7175293 C33.8981015 253.30398727 33.03204285 253.89044525 32.13973999 254.49467468 C30.53842451 255.57935762 28.93794347 256.66527407 27.33853149 257.75276184 C26.25878555 258.48422676 26.25878555 258.48422676 25.15722656 259.23046875 C24.47094681 259.70490417 23.78466705 260.1793396 23.07759094 260.66815186 C21 262 21 262 18.72746277 263.0960083 C14.48145437 265.21779332 14.48145437 265.21779332 12.24313354 269.22570801 C11.88726455 272.07066053 11.81250426 274.80472667 11.83203125 277.671875 C11.81726242 278.70886536 11.80249359 279.74585571 11.78727722 280.81427002 C11.76871126 283.00631035 11.77085004 285.19861037 11.79223633 287.390625 C11.81237131 290.72866463 11.73161912 294.05393071 11.64257812 297.390625 C11.07303191 308.51335405 11.07303191 308.51335405 15.30419922 318.328125 C18.09312638 320.61062293 20.82384877 322.31229934 24 324 C25.20729189 324.95249495 26.39056978 325.93741641 27.53125 326.96875 C32.48463242 331.19216028 37.45123092 335.39053679 42.5 339.5 C47.1045358 343.24787798 51.64019191 347.06983444 56.1640625 350.9140625 C59.5805954 353.81244823 63.02504838 356.671551 66.5 359.5 C70.53983295 362.78823612 74.53087671 366.12726442 78.5 369.5 C83.36030363 373.62915174 88.26608372 377.69560488 93.21484375 381.71875 C95.26021482 383.39406094 97.29301108 385.07979845 99.31640625 386.78125 C99.86804443 387.2445874 100.41968262 387.7079248 100.98803711 388.18530273 C102.54829061 389.49796344 104.10623715 390.81336479 105.6640625 392.12890625 C107.6312604 394.1041954 107.6312604 394.1041954 109 394 C109 331.3 109 268.6 109 204 C107.24433661 204 105.9630618 205.25840141 104.52978516 206.2019043 Z " fill="#9c0000" transform="translate(371,53)"/>
</svg>
